<svg width="226" height="27" viewBox="0 0 226 27" fill="none" xmlns="http://www.w3.org/2000/svg">
<path fill-rule="evenodd" clip-rule="evenodd" d="M32.9164 0.0286191C32.3295 0.104435 31.5446 0.774747 31.3056 1.40414C31.1166 1.89996 31.1671 24.7513 31.358 25.2074C31.9587 26.6443 33.9553 27.0017 35.034 25.8657C35.601 25.2682 35.6166 25.1491 35.6166 21.2969V17.7588L39.9054 22.0322C43.2961 25.4114 44.2839 26.3398 44.6222 26.4698C46.6754 27.2551 48.3933 24.8674 47.1286 22.9871C46.9607 22.7374 41.0744 16.8863 40.8842 16.7798C40.3177 16.4627 40.2925 16.4952 43.9673 12.8446C47.7462 9.09106 47.5512 9.34799 47.5536 8.12711C47.556 7.00672 46.7355 6.17996 45.5347 6.09331C44.4952 6.0181 44.4982 6.01569 39.8801 10.6188L35.6666 14.8188L35.6166 8.11508C35.5793 3.14731 35.5348 1.34638 35.4445 1.16105C35.0346 0.318044 34.0576 -0.120005 32.9164 0.0286191ZM49.5388 0.0466705C49.05 0.126699 48.3686 0.70555 48.0791 1.28621L47.8509 1.74411L47.8804 11.2554C47.9129 21.7463 47.8672 20.9725 48.5377 22.4215C50.1708 25.9517 54.6612 27.8381 56.6506 25.829C58.0224 24.4444 57.0611 22.6856 54.7786 22.4046C53.6903 22.271 53.1479 21.9184 52.5659 20.9671L52.3203 20.5664L52.2697 11.0894L52.2198 1.61234L51.9964 1.19474C51.5125 0.289764 50.6156 -0.129031 49.5388 0.0466705ZM19.409 5.96394C18.3062 6.10354 16.6413 6.78649 15.3796 7.61746C14.6429 8.10244 12.9436 9.67172 12.9436 9.86667C12.9436 9.93226 12.9081 9.98581 12.8648 9.98581C12.8214 9.98581 12.7071 10.12 12.6107 10.2831C12.5138 10.4467 12.3784 10.6387 12.3092 10.7097C12.1876 10.8348 11.5243 12.1562 11.1992 12.9222C10.566 14.4132 10.507 17.0427 11.0626 19.0621C11.1234 19.2823 11.21 19.5062 11.2558 19.5585C11.3009 19.6109 11.3383 19.715 11.3383 19.7902C11.3383 19.9448 11.8373 21.0411 11.942 21.1176C11.9799 21.1452 12.0907 21.3372 12.1876 21.5442C12.2851 21.7506 12.4043 21.9202 12.4536 21.9202C12.5024 21.9202 12.5421 21.9858 12.5421 22.0671C12.5421 22.4949 14.7645 24.4715 16.0664 25.2008C19.9814 27.3959 24.9516 26.8104 28.0389 23.7904C30.1186 21.7566 27.446 18.8322 25.1153 20.5911C24.8487 20.792 24.6085 20.987 24.5808 21.0255C24.2293 21.5123 22.0099 22.2211 20.8386 22.2211C19.8309 22.2211 17.7591 21.5327 17.7591 21.1982C17.7591 21.1537 17.6929 21.1176 17.6122 21.1176C17.5316 21.1176 17.4166 21.0273 17.3576 20.9172C17.2986 20.8071 17.1842 20.7168 17.1036 20.7168C17.0229 20.7168 16.9561 20.6825 16.9561 20.6416C16.9555 20.6001 16.8092 20.4057 16.6299 20.2096C16.2573 19.8016 15.7528 19.0892 15.7528 18.9718C15.7528 18.9279 15.6704 18.7727 15.5693 18.6259C14.0114 16.3628 15.4471 12.4065 18.3935 10.8439C19.7509 10.1242 21.9666 9.96355 23.0483 10.5063L23.2704 10.6182L22.9977 10.883C22.8478 11.0286 22.341 11.4835 21.8721 11.8939C21.4032 12.3042 20.8952 12.7645 20.7429 12.9174C20.5906 13.0702 20.4377 13.1954 20.4034 13.1954C20.3685 13.1954 20.2451 13.2971 20.1283 13.421C20.0115 13.5456 19.8032 13.7381 19.6654 13.85C17.9607 15.2298 18.9708 17.961 21.1829 17.9549C22.0545 17.9525 22.2555 17.8484 23.3155 16.8568C23.6406 16.5529 23.9187 16.3038 23.9343 16.3038C23.95 16.3038 24.1582 16.1233 24.3972 15.9025C24.6362 15.6817 24.9221 15.4181 25.0322 15.3164C25.143 15.2153 25.7973 14.6401 26.4871 14.0384C27.1769 13.4367 27.889 12.8012 28.0696 12.6261C28.2502 12.451 28.4332 12.2928 28.4753 12.2753C28.7636 12.1532 29.0279 11.4275 29.0309 10.75C29.0351 9.66089 28.6065 8.94063 27.39 7.98992C27.0313 7.70952 26.6882 7.43935 26.6274 7.38941C26.5666 7.33887 26.2277 7.15474 25.875 6.97904C25.5216 6.80394 25.1556 6.61921 25.0611 6.56927C24.966 6.51933 24.718 6.43449 24.5092 6.38093C24.3003 6.32738 23.8813 6.21245 23.578 6.12581C22.9429 5.94349 20.3606 5.8436 19.409 5.96394ZM9.43254 6.4393C8.54409 6.56927 7.3962 6.82681 6.92428 7.0019C6.32175 7.22634 4.59721 8.05972 4.51655 8.16562C4.48886 8.20173 4.27277 8.36299 4.03621 8.52304C3.08395 9.16928 1.83735 10.5641 1.25046 11.6405C0.837535 12.3981 0.597363 12.9324 0.504063 13.3037C0.456511 13.492 0.34094 13.8946 0.24764 14.1978C0.0315459 14.9036 -0.0990737 23.933 0.0941469 24.835C0.563053 27.018 3.44451 27.2256 4.1885 25.1292C4.27999 24.8705 4.3137 23.6063 4.31611 20.3155C4.31972 15.4404 4.35945 14.9963 4.88313 14.0125C5.04023 13.7177 5.23225 13.3566 5.3099 13.2104C5.49108 12.8692 6.6179 11.7585 6.9905 11.5539C7.147 11.4678 7.43352 11.327 7.62674 11.2404C7.81996 11.1543 8.06374 11.0352 8.16908 10.9756C8.27382 10.9161 8.90585 10.7861 9.57339 10.6868C11.1366 10.4545 11.313 10.3769 11.9011 9.65908C12.267 9.21261 12.3272 8.00978 12.0034 7.61204C11.9209 7.51096 11.7428 7.29253 11.6067 7.12586C11.1264 6.53798 10.3788 6.30151 9.43254 6.4393ZM64.5094 6.59214C64.0405 6.70406 63.4308 6.88878 63.1551 7.00371C62.2131 7.39483 61.6087 7.69869 61.4913 7.83949C61.4275 7.91711 61.3318 7.98029 61.2801 7.98029C61.188 7.98029 60.4976 8.46227 60.3952 8.59826C60.3675 8.63496 60.1773 8.79803 59.9733 8.96049C58.8946 9.81733 57.4132 12.1412 57.0816 13.4962C57.0346 13.6894 56.9215 14.1401 56.8312 14.4987C56.3978 16.2148 56.848 19.5742 57.6913 20.9214C57.7756 21.0574 57.902 21.2806 57.9706 21.4184C58.1849 21.8462 58.3234 22.0544 58.8139 22.6892C59.2817 23.2952 60.7588 24.7279 60.9153 24.7279C60.9592 24.7279 61.0856 24.8055 61.1958 24.8993C61.4179 25.0895 62.7674 25.8254 63.0046 25.8856C63.0871 25.906 63.3537 25.9951 63.5975 26.0829C65.8861 26.9079 69.1299 26.6413 71.4955 25.4343C72.4538 24.9451 72.3978 24.9469 72.5862 25.3982C73.285 27.0691 76.2339 26.8934 76.754 25.1497C76.8304 24.8915 76.8527 23.2007 76.825 19.6133C76.7823 13.992 76.7847 14.0167 76.1472 12.6436C76.0449 12.4228 75.9335 12.1448 75.8998 12.0256C75.8655 11.9065 75.7716 11.7543 75.6916 11.6875C75.6109 11.6207 75.5447 11.4811 75.5447 11.3776C75.5447 11.2741 75.5074 11.1892 75.461 11.1892C75.4153 11.1892 75.3153 11.0653 75.2383 10.9137C73.6167 7.70952 68.49 5.64443 64.5094 6.59214ZM102.06 6.67096C99.9681 7.06749 98.2743 7.98511 96.7532 9.54716L96.0417 10.2782L95.2953 9.54897C94.2546 8.53147 92.1237 7.17821 91.5633 7.17821C91.4845 7.17821 91.2503 7.1072 91.0433 7.02056C87.2457 5.43443 81.4358 7.62287 79.3314 11.4323C78.9552 12.1135 78.3539 13.3969 78.3539 13.5179C78.3539 13.5714 78.2522 13.9385 78.1282 14.3326C77.9061 15.0384 77.9025 15.1365 77.9025 20.2727V25.4944L78.1414 25.844C78.6952 26.6521 80.5383 27.0433 81.1077 26.4734C81.1854 26.3958 81.2859 26.3326 81.3311 26.3326C81.4683 26.3326 81.9228 25.7032 82.048 25.3398C82.1316 25.0985 82.1659 23.6767 82.1659 20.4761C82.1659 15.4007 82.2009 15.0493 82.8172 13.9283C85.3911 9.24811 91.9143 9.92384 93.6689 15.0529C93.8176 15.4867 93.8471 16.2064 93.897 20.5664L93.9536 25.5805L94.2546 25.9566C94.4201 26.1635 94.5929 26.3326 94.638 26.3326C94.6837 26.3326 94.7837 26.3958 94.8613 26.4734C95.4061 27.018 97.1366 26.6834 97.7277 25.9186C98.1942 25.3151 98.2015 25.2273 98.2111 20.3654C98.2219 14.9277 98.2135 14.9927 99.1718 13.2952C100.872 10.2855 105.68 9.88713 108.293 12.5407C109.815 14.0865 109.878 14.3892 109.948 20.416C109.993 24.273 110.035 25.4319 110.138 25.6136C110.922 26.9873 112.957 27.0162 113.868 25.6659L114.118 25.2947L114.149 20.7505C114.18 16.1011 114.109 14.5673 113.817 13.5961C113.524 12.6207 112.421 10.5183 112.143 10.404C112.098 10.3854 112.062 10.3258 112.062 10.271C112.062 10.1465 110.676 8.78238 110.55 8.78238C110.498 8.78238 110.457 8.74327 110.457 8.69573C110.457 8.47069 108.495 7.39904 107.447 7.05185C105.7 6.47239 103.813 6.33881 102.06 6.67096ZM67.8201 10.7283C71.6622 11.5557 73.6769 15.6323 71.9638 19.112C71.5521 19.9484 70.0894 21.5189 69.7228 21.5189C69.6138 21.5189 69.5254 21.5532 69.5254 21.5947C69.5254 21.6832 69.2081 21.8264 68.3751 22.1146C66.5638 22.7404 64.2073 22.0665 62.6766 20.4852C62.1228 19.9135 61.4998 19.0874 61.4998 18.9255C61.4998 18.8834 61.4131 18.6704 61.3078 18.4514C60.1496 16.0565 61.9205 11.9047 64.4282 11.1357C64.5558 11.0966 64.7117 11.0232 64.7755 10.972C65.1812 10.6489 66.8359 10.5159 67.8201 10.7283Z" fill="#34ACEC"/>
<path fill-rule="evenodd" clip-rule="evenodd" d="M207.008 0.247163C206.026 0.84587 205.864 1.36756 205.864 3.94411L205.863 5.9749H204.678C203.632 5.9749 203.468 5.99836 203.278 6.17527C203.159 6.28538 203.024 6.37564 202.977 6.37564C202.701 6.37564 202.151 7.54477 202.151 8.13085C202.151 9.56112 203.158 10.3873 204.902 10.3873H205.859L205.886 17.8419L205.913 25.2972L206.202 25.713C207.102 27.0121 209.246 26.9742 210.09 25.6438L210.378 25.1901V17.7974V10.4047L211.535 10.371C212.172 10.3524 212.724 10.291 212.764 10.2344C212.803 10.1779 212.96 10.0521 213.113 9.95525C214.329 9.18144 214.283 7.1338 213.032 6.27275C212.616 5.98633 212.555 5.9749 211.488 5.9749H210.378L210.376 3.94411C210.375 1.44819 210.199 0.918076 209.162 0.280859C208.675 -0.0181938 207.474 -0.0368474 207.008 0.247163ZM130.32 6.47793C128.616 6.69575 126.551 7.47197 125.749 8.19463C125.636 8.29752 125.512 8.38176 125.474 8.38176C124.746 8.38176 122.094 11.8591 121.688 13.3459C121.643 13.5114 121.527 13.8496 121.43 14.0981C120.853 15.5729 121.289 19.4353 122.211 21.0178C122.259 21.1002 122.363 21.3072 122.441 21.4769C122.52 21.6466 122.654 21.844 122.74 21.9156C122.826 21.9866 122.897 22.0895 122.897 22.1442C122.897 22.5131 125.575 25.1293 125.953 25.1293C125.977 25.1293 126.214 25.2551 126.479 25.4085C128.757 26.7305 132.537 27.0338 134.799 26.0758C137.338 25.0006 138.848 23.6545 138.848 22.4655C138.848 21.7772 138.244 20.7169 137.852 20.7169C137.793 20.7169 137.744 20.679 137.744 20.6327C137.744 20.4624 137.217 20.3156 136.608 20.3156C135.967 20.3156 135.821 20.3758 135.175 20.9101C134.425 21.5305 134.238 21.643 133.282 22.0485C132.315 22.4595 130.078 22.5125 129.298 22.143C129.038 22.0203 128.804 21.9204 128.776 21.9204C128.304 21.9204 126.659 20.2638 126.063 19.1874C124.609 16.5621 125.689 12.8988 128.314 11.5552C128.452 11.4848 128.655 11.3771 128.766 11.3163C130.565 10.3253 133.352 10.5991 134.761 11.9054C135.849 12.9145 137.133 13.0619 138.073 12.2857C138.851 11.6431 139.101 10.4511 138.619 9.68026C138.316 9.19528 136.91 7.98042 136.652 7.98042C136.59 7.98042 136.54 7.94612 136.54 7.904C136.54 7.8354 135.847 7.48581 134.815 7.03512C133.854 6.61512 131.513 6.3251 130.32 6.47793ZM223.068 6.52366C223.013 6.54051 222.629 6.61031 222.216 6.6777C221.433 6.80587 220.178 7.18675 219.658 7.45331C219.492 7.53876 219.271 7.65068 219.167 7.70302C218.421 8.0791 217.601 8.59718 217.601 8.69225C217.601 8.74219 217.547 8.7825 217.481 8.7825C217.302 8.7825 215.793 10.3626 215.421 10.9391C215.244 11.2146 215.062 11.4854 215.018 11.5408C214.934 11.6443 214.538 12.4656 214.255 13.1197C213.672 14.4705 213.357 24.1979 213.861 25.3014C214.637 26.9989 216.648 27.1637 217.674 25.6137L217.952 25.1943L218.004 20.2229C218.055 15.4345 218.065 15.2305 218.273 14.6974C218.812 13.317 219.824 12.0787 220.858 11.5335C220.97 11.474 221.152 11.3777 221.262 11.3193C221.833 11.0173 222.661 10.7995 223.461 10.7405C224.89 10.6358 225.665 10.0443 225.971 8.82522C226.261 7.66933 224.321 6.13074 223.068 6.52366ZM184.946 6.73005C183.591 6.94306 181.248 7.89437 181.1 8.2921C181.082 8.34145 181.001 8.38176 180.922 8.38176C180.842 8.38176 180.325 8.82884 179.774 9.37519L178.771 10.3686L178.046 9.64235C177.239 8.83305 176.321 8.17056 175.415 7.74454C175.084 7.5887 174.745 7.42684 174.663 7.38472C173.331 6.70719 169.615 6.46349 168.121 6.9563C167.75 7.07844 167.402 7.17833 167.345 7.17833C167.192 7.17833 165.529 7.98102 165.183 8.22231C164.578 8.64291 163.873 9.24462 163.479 9.67665C163.257 9.91975 163.008 10.1905 162.925 10.279C162.842 10.3668 162.629 10.6641 162.451 10.9397C162.273 11.2146 162.092 11.4854 162.048 11.5408C161.968 11.6395 161.618 12.3615 161.269 13.1449C161.171 13.3658 161.057 13.7039 161.016 13.8971C160.976 14.0902 160.869 14.5175 160.78 14.846C160.64 15.3593 160.617 16.1523 160.617 20.4534V25.4627L160.867 25.8881C161.464 26.9074 163.177 27.1318 164.162 26.3207C164.903 25.7106 164.871 25.9561 164.929 20.3156C164.981 15.3304 164.985 15.2437 165.207 14.7618C165.332 14.4928 165.433 14.2316 165.433 14.1811C165.433 14.021 166.589 12.4861 166.768 12.4078C166.813 12.3886 166.925 12.2917 167.019 12.1924C167.616 11.56 169.469 10.8849 170.65 10.8693C171.632 10.856 173.495 11.3885 173.86 11.7875C173.888 11.8176 174.11 11.977 174.354 12.1425C175.143 12.6768 175.972 13.858 176.394 15.0506C176.596 15.624 176.61 15.8894 176.663 20.6694C176.719 25.6384 176.722 25.6889 176.939 25.9651C177.727 26.9664 179.134 27.1048 180.141 26.2792C180.967 25.6029 180.924 25.9122 180.982 20.2151C181.033 15.2293 181.037 15.1432 181.259 14.6619C181.383 14.3929 181.485 14.1107 181.485 14.0349C181.485 13.9591 181.524 13.8971 181.573 13.8971C181.621 13.8971 181.717 13.7623 181.786 13.5968C182.025 13.0192 183.289 11.8507 184.146 11.4144C185.925 10.51 188.47 10.6424 189.958 11.7159C191.248 12.6467 192.032 13.6961 192.486 15.1005C192.644 15.5885 192.67 16.2275 192.718 20.6165L192.771 25.5806L193.02 25.9128C194.046 27.2805 196.366 26.8647 196.807 25.2352C196.995 24.539 196.98 16.4111 196.787 14.9501C196.574 13.3315 195.309 10.3873 194.827 10.3873C194.772 10.3873 194.727 10.3403 194.727 10.2838C194.727 10.1532 193.364 8.7825 193.234 8.7825C193.181 8.7825 193.124 8.747 193.106 8.70368C193.02 8.5021 191.873 7.82156 190.915 7.40457C189.169 6.644 187.027 6.40212 184.946 6.73005ZM148.724 6.87988C146.801 7.13681 143.974 8.17357 143.78 8.69285C143.762 8.74219 143.702 8.7825 143.647 8.7825C143.297 8.7825 141.38 10.693 140.884 11.5354C140.595 12.0252 139.751 13.8135 139.751 13.9338C139.751 14.0066 139.661 14.4188 139.55 14.8502C139.136 16.47 139.361 19.4786 139.987 20.6893C140.078 20.8644 140.152 21.0557 140.152 21.1147C140.152 21.173 140.299 21.4715 140.478 21.7778C140.657 22.0834 140.849 22.4114 140.904 22.5052C141.085 22.8133 141.489 23.3711 141.649 23.5348C141.736 23.6232 141.924 23.826 142.067 23.9861C145.267 27.5711 151.981 28.0434 155.698 24.9458C156.267 24.4716 157.006 23.7237 157.006 23.6226C157.006 23.5691 157.048 23.5245 157.099 23.5245C157.341 23.5245 159.013 20.7025 159.013 20.2939C159.013 20.2193 159.11 19.889 159.229 19.5598C159.587 18.5682 159.558 15.4736 159.179 14.2984C158.793 13.0974 158.284 11.9776 157.945 11.5829C157.87 11.4956 157.809 11.3717 157.809 11.3073C157.809 11.2423 157.773 11.1894 157.73 11.1894C157.687 11.1894 157.577 11.0654 157.486 10.9138C157.097 10.2627 155.44 8.76325 154.56 8.26503C154.173 8.04661 153.37 7.65549 152.862 7.43947C151.869 7.01587 149.801 6.73607 148.724 6.87988ZM151.037 11.421C154.527 12.5571 156.233 16.2697 154.732 19.463C154.339 20.2993 153.376 21.519 153.109 21.519C153.045 21.519 152.993 21.5575 152.993 21.6045C152.993 21.7194 152.157 22.2285 151.539 22.4908C150.332 23.0011 148.526 23.0095 147.406 22.5088C147.175 22.406 146.94 22.3211 146.886 22.3211C146.832 22.3211 146.728 22.2633 146.655 22.1923C146.582 22.1213 146.358 21.9631 146.158 21.8403C145.46 21.4137 144.308 20.0358 144.11 19.3908C144.072 19.265 144.004 19.117 143.96 19.061C143.284 18.2096 143.688 14.228 144.481 13.9139C144.528 13.8959 144.566 13.8357 144.566 13.7804C144.566 13.4554 145.841 12.2791 146.674 11.8356C147.98 11.1388 149.676 10.9782 151.037 11.421ZM117.748 22.2429C116.334 22.6178 115.777 24.7785 116.8 25.9206C117.855 27.0981 119.874 26.7852 120.5 25.3465C121.3 23.5083 119.716 21.7218 117.748 22.2429ZM200.546 22.2567C200.111 22.3987 199.543 22.8157 199.543 22.992C199.543 23.0642 199.505 23.1238 199.458 23.1238C199.058 23.1238 199.013 25.0403 199.4 25.6251C200.632 27.4856 203.556 26.6083 203.556 24.3778C203.556 22.8368 202.04 21.7681 200.546 22.2567Z" fill="white"/>
</svg>
